<?xml version="1.0" encoding="UTF-8"?>
<svg xmlns="http://www.w3.org/2000/svg" xmlns:xlink="http://www.w3.org/1999/xlink" width="96pt" height="96pt" viewBox="0 0 96 96" version="1.1">
<g id="surface8992046">
<path style=" stroke:none;fill-rule:nonzero;fill:rgb(100%,100%,100%);fill-opacity:1;" d="M 48 8 C 25.90625 8 8 25.90625 8 48 C 8 70.09375 25.90625 88 48 88 C 70.09375 88 88 70.09375 88 48 C 88 25.90625 70.09375 8 48 8 Z M 64 52 L 52 52 L 52 64 C 52 66.207031 50.207031 68 48 68 C 45.792969 68 44 66.207031 44 64 L 44 52 L 32 52 C 29.792969 52 28 50.207031 28 48 C 28 45.792969 29.792969 44 32 44 L 44 44 L 44 32 C 44 29.792969 45.792969 28 48 28 C 50.207031 28 52 29.792969 52 32 L 52 44 L 64 44 C 66.207031 44 68 45.792969 68 48 C 68 50.207031 66.207031 52 64 52 Z M 64 52 "/>
</g>
</svg>
