<svg xmlns="http://www.w3.org/2000/svg" width="95" height="92" viewBox="0 0 92 95">
    <g fill="none" fill-rule="evenodd">
        <path
            d="M47.523 91.666a48.958 48.958 0 0 0 18.575-3.631c.137-.069.251-.114.388-.16.023 0 .046 0 .046-.023a7.362 7.362 0 0 1 2.559-.457c.982 0 1.919.183 2.764.549 12.42 3.578 19.817 4.264 22.192 2.056s-.308-7.27-8.049-15.188c0-1.21.343-2.352.891-3.334a7.99 7.99 0 0 1 .571-.845C92.235 63.486 95 54.99 95 45.88 95.046 20.53 73.775 0 47.523 0 21.27 0 0 20.53 0 45.833c0 25.326 21.271 45.833 47.523 45.833z"
            fill-rule="nonzero" fill="#1884FF"></path>
        <g transform="translate(21 19)">
            <circle stroke="#FFF" stroke-width="10" cx="27" cy="27" r="27"></circle>
            <circle fill="#FFF" cx="27" cy="27" r="9"></circle>
        </g>
    </g>
</svg>